<svg width="54" height="59" viewBox="0 0 54 59" fill="none" xmlns="http://www.w3.org/2000/svg">
<g clip-path="url(#clip0_689_1500)">
<path d="M27.9206 31.9496C27.6731 31.8386 27.4248 31.7168 27.1807 31.5868C27.3144 31.5022 27.4412 31.4216 27.5653 31.3438L28.1913 31.7682L27.9206 31.9496ZM26.5486 32.8716L25.7753 32.347C26.0461 32.2211 26.303 32.0885 26.5486 31.9558C26.7961 32.0885 27.0538 32.2211 27.3273 32.347L26.5486 32.8716ZM28.149 34.8787L26.5486 35.976L24.9536 34.8787L26.5486 33.8045L28.149 34.8787ZM24.9106 31.7682L25.5339 31.3438C25.6546 31.4216 25.7821 31.5022 25.9185 31.5868C25.6743 31.7168 25.4296 31.8386 25.1821 31.9496L24.9106 31.7682ZM26.5486 30.6513L26.998 30.9553C26.8575 31.0466 26.7048 31.1366 26.5486 31.2301C26.3951 31.1366 26.2444 31.0466 26.1012 30.9553L26.5486 30.6513ZM32.4763 29.0422C32.4627 29.026 32.1367 28.693 31.566 28.693C31.2694 28.693 30.9591 28.787 30.6502 28.9651C30.5943 28.9935 30.5615 29.0551 30.5718 29.1174C30.5752 29.133 30.7968 30.6479 30.627 31.2984C30.5002 31.7872 30.0822 32.3605 29.3225 32.3605C29.1596 32.3605 28.9938 32.3342 28.8172 32.2854C28.8172 32.2854 28.8111 32.2854 28.8111 32.2827L29.3846 31.8969C29.4275 31.8678 29.4535 31.8224 29.4535 31.7709C29.4535 31.7195 29.4275 31.6741 29.3846 31.645L28.2472 30.8679C28.6058 30.5992 28.8336 30.4083 28.8629 30.3825C28.8957 30.3535 28.9182 30.3156 28.9182 30.2723C28.9182 30.231 28.9018 30.1882 28.8697 30.1592L28.6673 29.9555C28.6379 29.9263 28.5957 29.9101 28.5602 29.9101C28.5275 29.9101 28.4913 29.9229 28.4654 29.9425C28.4524 29.9487 28.1517 30.1788 27.6955 30.4922L27.2394 30.1788L29.0266 28.959L29.1664 29.311C29.1896 29.3658 29.238 29.4051 29.3034 29.4085C29.3034 29.4085 29.3062 29.4085 29.3096 29.4085C29.3655 29.4085 29.4173 29.376 29.4433 29.3279L30.2943 27.7744C30.3236 27.7216 30.3175 27.6607 30.2847 27.6112C30.2554 27.5699 30.207 27.5469 30.1572 27.5469C30.151 27.5469 30.1442 27.5469 30.1347 27.5469L28.374 27.8089C28.3154 27.8157 28.2629 27.8576 28.2472 27.9165C28.2342 27.9713 28.2499 28.0323 28.2922 28.0742L28.5793 28.3241L26.5486 29.709L24.5233 28.3241L24.807 28.0742C24.8493 28.0323 24.8684 27.9713 24.8493 27.9165C24.8363 27.8576 24.7872 27.8157 24.7252 27.8089L22.9645 27.5469C22.9584 27.5469 22.9481 27.5469 22.942 27.5469C22.8895 27.5469 22.8404 27.5699 22.8145 27.6112C22.7817 27.6607 22.7791 27.7216 22.8049 27.7744L23.6525 29.3279C23.6818 29.376 23.7344 29.4085 23.7896 29.4085C23.7964 29.4085 23.7964 29.4085 23.7991 29.4085C23.8578 29.4051 23.9103 29.3658 23.9335 29.311L24.0733 28.959L25.8599 30.1788L25.4036 30.4922C24.9441 30.1788 24.644 29.9487 24.6372 29.9425C24.6079 29.9229 24.5758 29.9101 24.5431 29.9101C24.5002 29.9101 24.4613 29.9263 24.432 29.9555L24.226 30.1592C24.1967 30.1882 24.181 30.231 24.181 30.2723C24.1838 30.3156 24.2035 30.3535 24.2328 30.3825C24.2656 30.4083 24.4906 30.5992 24.8527 30.8679L23.7112 31.645C23.6724 31.6741 23.6457 31.7195 23.6457 31.7709C23.6492 31.8224 23.6724 31.8678 23.7139 31.8969L24.288 32.2827C24.288 32.2854 24.2847 32.2854 24.2819 32.2854C24.106 32.3342 23.9396 32.3605 23.7801 32.3605C23.0198 32.3605 22.5997 31.7872 22.4721 31.2984C22.3024 30.6479 22.5281 29.133 22.5281 29.1174C22.5377 29.0551 22.5076 28.9935 22.4524 28.9651C22.1394 28.787 21.8298 28.693 21.5366 28.693C20.9659 28.693 20.6365 29.026 20.6236 29.0422C20.5976 29.0652 20.5813 29.1005 20.5813 29.133C20.5717 29.227 20.3985 31.4156 21.4193 32.5216C21.7978 32.9305 22.2894 33.137 22.8861 33.137C22.9911 33.137 23.1043 33.1343 23.2161 33.118C23.7964 33.0497 24.3637 32.8974 24.9106 32.7031L25.8571 33.3374L23.7603 34.7454C23.7173 34.7785 23.6914 34.8239 23.6914 34.8754C23.6914 34.924 23.7139 34.9721 23.7603 35.0012L25.8633 36.4451L24.0698 37.6778L23.9335 37.3325C23.9103 37.2804 23.8578 37.2418 23.7991 37.2378C23.7964 37.2351 23.7964 37.2351 23.7896 37.2351C23.7344 37.2351 23.6818 37.2669 23.6525 37.3157L22.8049 38.8726C22.7791 38.9213 22.7817 38.9856 22.8145 39.031C22.8404 39.073 22.8895 39.0959 22.942 39.0959C22.9481 39.0959 22.9584 39.0959 22.9645 39.0959L24.7252 38.8374C24.7872 38.8272 24.8363 38.7853 24.8493 38.7304C24.8684 38.6722 24.8493 38.6099 24.807 38.5686L24.5165 38.3127L26.5486 36.9176L28.5826 38.3127L28.2922 38.5686C28.2472 38.6099 28.2308 38.6722 28.2472 38.7304C28.2629 38.7853 28.3119 38.8272 28.374 38.8374L30.1347 39.0959C30.1442 39.0959 30.151 39.0959 30.1572 39.0959C30.207 39.0959 30.2554 39.073 30.2847 39.031C30.3175 38.9856 30.3208 38.9213 30.2943 38.8726L29.4433 37.3157C29.4173 37.2669 29.3655 37.2351 29.3096 37.2351C29.3062 37.2351 29.3034 37.2351 29.3034 37.2378C29.238 37.2418 29.1896 37.2804 29.1664 37.3325L29.0266 37.6778L27.2359 36.4451L29.3389 35.0012C29.3818 34.9721 29.4078 34.924 29.4078 34.8754C29.4078 34.8239 29.3818 34.7785 29.3389 34.7454L27.2427 33.3374L28.1913 32.7031C28.7361 32.8974 29.3062 33.0497 29.8838 33.118C29.9976 33.1343 30.1088 33.137 30.2131 33.137C30.8097 33.137 31.3055 32.9305 31.6806 32.5216C32.7041 31.4156 32.5282 29.227 32.5186 29.133C32.5152 29.1005 32.4988 29.0652 32.4763 29.0422Z" fill="black"/>
<path d="M33.0201 30.3271C33.0822 30.2073 33.1116 29.9744 33.1116 29.9744L33.0201 29.9453V30.3271Z" fill="black"/>
<path d="M31.3736 40.2868C29.7172 43.4819 26.6814 46.0834 26.6459 46.0454C26.6098 46.0834 23.5739 43.4819 21.9176 40.2868C20.2612 37.0951 19.1989 32.0811 19.1403 29.6862C19.0809 27.2912 19.5535 26.2651 19.5535 26.2651C19.5535 26.2651 21.6244 26.1513 23.2807 25.5786C24.6861 25.0966 26.2157 23.8727 26.6459 23.5167C27.0728 23.8727 28.6057 25.0966 30.0138 25.5786C31.6675 26.1513 33.7377 26.2651 33.7377 26.2651C33.7377 26.2651 34.2109 27.2912 34.1482 29.6862C34.0895 32.0811 33.0271 37.0951 31.3736 40.2868ZM31.5297 51.1501C31.7452 51.5604 31.8693 52.3638 31.2106 52.4254C30.8423 51.4669 30.3991 50.9071 29.8508 50.1341C29.3422 49.5377 28.7816 48.923 28.3806 48.2495C29.2801 49.2981 31.0871 50.3439 31.5297 51.1501ZM28.3806 56.0213C28.5041 55.0824 28.2593 52.9853 27.8754 51.5603C27.6108 50.6025 26.7339 48.087 27.1246 47.1881C27.2781 48.3727 27.7547 50.2241 28.4427 51.7424C28.931 52.8323 29.649 55.3673 28.3806 56.0213ZM25.413 51.5603C25.0482 52.9853 24.7871 55.0824 24.9105 56.0213C23.6394 55.3673 24.3602 52.8323 24.8491 51.7424C25.5338 50.2241 26.0097 48.3727 26.1631 47.1881C26.5579 48.087 25.6804 50.6025 25.413 51.5603ZM23.4566 50.1341C22.8894 50.9071 22.4461 51.4669 22.0806 52.4254C21.4219 52.3638 21.546 51.5604 21.7615 51.1501C22.2047 50.3439 24.0076 49.2981 24.9105 48.2495C24.5102 48.923 23.949 49.5282 23.4566 50.1341ZM16.6813 39.7338C16.7141 39.9437 16.7434 40.0669 16.8341 40.2056C15.6571 40.387 15.1552 40.8433 14.7284 41.5845C14.1283 42.585 14.7543 43.8766 14.5845 44.4106C14.4645 44.7444 14.0697 45.0645 13.443 44.7735C13.7465 46.1098 15.4293 45.9581 15.8719 45.2135C16.0226 45.8349 15.8719 46.5504 15.5657 46.8218C16.088 46.851 16.5313 46.6405 16.8047 46.2295C16.8668 46.3527 16.8668 46.5213 16.8961 46.6695C17.1866 46.5213 17.3728 46.3527 17.4928 46.2004C17.5385 46.3494 17.5971 46.6986 17.5255 46.9843C17.3012 47.136 17.0461 47.2754 16.652 47.4757C16.0226 47.7804 14.8811 48.2204 14.2224 48.3104C13.6844 48.4018 12.7522 48.0972 12.5074 47.3526C12.2919 46.6405 11.6987 46.4143 11.2227 46.851C11.102 46.7602 10.7665 46.6986 10.626 46.9167C10.626 46.9167 10.476 46.5796 10.2898 46.4143C10.4139 46.0482 10.3192 45.6081 9.98372 45.4599C9.95441 44.7444 9.51117 44.7444 9.35767 44.5014C9.26702 44.3491 9.26702 44.1643 9.48178 44.1351C9.39042 43.9998 9.20426 43.9707 9.17495 43.9707C9.23427 43.666 9.1422 43.2876 8.73173 43.1644L5.10606 35.742C5.33723 35.4996 5.21721 35.1497 4.95264 35.0265C4.95264 35.0265 4.95264 34.9974 4.95264 34.9689C4.97514 34.9107 4.97855 34.8647 4.98537 34.82C5.08288 34.8031 5.20085 34.7808 5.30518 34.755C6.02254 34.5865 7.14017 33.5412 8.10575 32.8873C7.76616 33.2367 6.36076 34.2534 5.73477 34.8457C5.15107 35.4218 5.39587 35.9978 5.49066 36.5164L5.62772 36.8034C6.15892 36.8365 6.9547 37.154 7.55136 36.6673C7.73684 36.4866 10.3519 33.2657 10.701 32.9489C10.5674 33.2367 8.91451 35.302 8.16779 36.4866C7.61341 37.3801 8.42555 37.9724 8.51965 38.4869C9.1129 38.3055 9.92502 38.6554 10.3519 37.9434C10.7665 37.2597 12.0348 34.8166 12.5074 34.1302C12.3247 34.6643 10.9779 37.4417 10.8872 37.684C10.5674 38.6264 11.3761 38.8077 11.6987 39.4318C12.1876 39.0832 13.072 39.3547 13.4109 38.4578C13.6223 37.852 14.1603 35.742 14.4378 35.1788C14.4052 35.8042 14.2224 36.6382 14.099 37.5615C13.9748 38.4869 14.8484 38.4578 15.3053 38.9919C15.7484 38.6264 16.5606 38.717 16.6813 37.8811C16.8047 37.1378 16.8341 35.3311 16.8341 35.3311C16.9581 35.438 17.0202 35.4671 17.1573 35.5897C17.4601 35.2411 18.0901 35.2411 18.3022 34.8166C18.3963 34.8457 18.4256 34.9073 18.517 34.9689C19.2051 36.1041 19.2637 38.3055 18.3022 39.0832C18.579 39.0832 18.9309 39.0501 19.143 38.9601C18.7161 39.8238 17.7669 40.1291 16.6813 39.7338ZM5.67614 31.7806C5.51657 31.8449 5.33109 31.9261 5.18381 31.987C5.18381 31.9749 5.18381 31.9579 5.18381 31.9458C5.33382 31.891 5.51998 31.8354 5.67614 31.7806ZM21.3605 13.107C23.0755 12.7414 24.8164 11.7862 25.5992 10.9841C26.2477 11.0227 27.0858 11.0288 27.7219 10.9936C28.4946 11.8025 30.2129 12.7414 31.9279 13.107C30.9331 13.107 29.1921 13.0163 28.9774 12.7732C29.0393 13.3947 30.3691 14.0973 31.2399 14.2916C30.5191 14.3816 29.8508 14.2916 29.2801 14.0357C29.5903 14.4757 29.9388 14.8094 30.5191 15.0071C29.9095 15.7517 28.6575 16.2337 27.4151 16.1138C27.7219 16.4794 28.2893 16.7061 28.7816 16.6445C27.6661 18.412 26.8382 20.2241 26.6425 22.3253L26.6357 22.3226L26.633 22.3293C26.4468 20.2241 25.6251 18.412 24.5129 16.6445C25.0155 16.7061 25.5699 16.4794 25.857 16.1138C24.6043 16.2337 23.3947 15.7517 22.7686 15.0071C23.3523 14.8094 23.7008 14.4757 24.0076 14.0357C23.4566 14.2916 22.7686 14.3816 22.0513 14.2916C22.922 14.0973 24.2688 13.3947 24.3267 12.7732C24.099 13.0163 22.3581 13.107 21.3605 13.107ZM32.7987 53.2892C33.1833 53.9431 32.6487 54.4122 31.8986 54.4122C31.8986 54.157 31.8986 54.0656 31.8365 53.759C32.1857 53.7259 32.5934 53.5965 32.7987 53.2892ZM21.3926 54.4122C20.6431 54.4122 20.1078 53.9431 20.4897 53.2892C20.6882 53.5844 21.083 53.7238 21.4219 53.759C21.3926 54.0656 21.3926 54.157 21.3926 54.4122ZM4.04981 32.2328C4.01025 32.2328 3.9707 32.2328 3.92843 32.2328C3.92229 32.2239 3.91547 32.2138 3.90593 32.2043C3.96116 32.1915 4.02048 32.1915 4.07231 32.1753C4.0689 32.1949 4.05935 32.2138 4.04981 32.2328ZM3.14901 34.1302L2.84625 33.9529C2.96695 33.8127 3.08764 33.8127 3.20834 33.8913C3.20834 33.9813 3.20833 34.072 3.14901 34.1302ZM2.55235 32.8582C2.52303 32.8582 2.52303 32.8873 2.49371 32.9165C2.30823 32.8873 2.30823 32.6734 2.34096 32.4921C2.42893 32.4921 2.49371 32.463 2.55235 32.402L2.58167 32.4338L2.49371 32.4921C2.52303 32.6153 2.52303 32.7357 2.55235 32.8582ZM53.1677 24.9017C52.5124 24.5105 51.4269 24.371 50.3249 24.4773C52.0528 23.885 53.2297 22.611 53.2918 21.471C52.3917 21.2152 51.4562 21.3512 50.6474 21.5326C51.4855 20.9105 52.8616 19.772 52.6951 18.1013C51.8865 17.9044 50.3999 18.4675 49.7732 18.7424C51.7624 17.6315 52.4797 15.0071 51.4269 13.5185C50.8008 13.8834 47.9539 16.7644 47.4943 17.1015C48.9652 15.4308 49.6532 14.23 50.0507 13.107C50.5233 11.8804 50.5527 9.7406 49.0265 9.02509C48.3065 10.666 45.7828 14.8676 44.3774 16.6154C44.224 16.4794 44.1005 16.2953 43.9014 16.2661C43.5653 17.3317 42.5703 18.7424 41.6675 19.4219C41.6218 19.332 41.5311 19.089 41.377 18.8296C40.4155 20.2573 37.9211 22.2156 37.1124 23.4159C36.483 24.3094 36.483 25.1162 37.3565 25.9503C37.7091 26.3002 38.3807 26.9223 37.8004 27.7861C37.0108 28.9321 35.4233 29.0648 34.5594 28.3912C34.5594 28.1875 34.5526 27.9932 34.543 27.8118C35.5604 27.4205 35.7984 26.0443 35.0483 25.19C34.8826 25.5035 34.6112 25.7337 34.2859 25.8474C34.1979 25.4913 34.1189 25.3167 34.1127 25.2997L34.0732 25.2158L33.9852 25.2124C33.9757 25.2097 33.6436 25.1935 33.1444 25.1352C33.7084 24.9511 34.0698 24.4326 33.992 23.7333C33.1212 24.4773 32.2477 23.7665 32.0486 23.5689C31.501 22.9305 31.3476 22.2157 31.5624 21.1211C31.7452 20.1659 32.7394 18.6483 33.3954 18.1629C33.4902 18.2529 33.6401 18.4351 33.9593 18.4059C34.1447 18.3477 34.4516 18.192 34.68 18.1013C35.3387 17.9044 35.9811 18.056 36.395 18.3152C37.1417 18.7687 37.0797 19.2696 37.0537 19.6359C38.1946 18.9983 37.8004 17.9361 36.3037 17.5415C37.3272 17.5415 38.1686 18.4675 38.3807 18.5867C38.9481 18.9982 39.7568 18.9075 40.2294 18.6808C41.1363 18.253 41.3183 17.1915 41.0743 16.9783C40.9828 17.3607 40.6924 17.6938 40.1673 17.7554C39.3913 17.8461 38.6385 17.509 38.0452 17.2498C37.5427 17.0392 36.7278 16.8876 36.1796 16.9194C37.2038 16.3569 38.7947 16.4178 39.3586 17.2829C39.6981 17.0101 39.9103 16.7644 40.0044 16.2046C40.2948 14.6896 39.1015 13.9125 37.8297 13.9125C37.8625 13.5476 37.6014 13.3655 37.2658 13.4887C37.2658 13.3337 37.2235 13.2139 37.1383 13.1523C37.1677 13.1489 37.2072 13.1368 37.2331 13.1368C38.5178 13.0487 39.7274 12.6541 40.3828 11.9704C41.5311 10.7539 39.6981 9.2065 40.3535 8.00902C40.9828 8.28046 41.4424 8.63043 42.3098 8.75025C42.4012 8.93505 42.4796 9.2972 42.509 9.49419C42.7858 10.848 41.4424 11.0742 41.7916 12.5147C41.9444 13.1679 42.4374 13.3946 42.6031 14.1717C42.6031 14.1717 42.6658 14.7153 42.1891 15.1885C43.2918 15.2176 43.8721 14.2916 43.5332 13.4271C43.3825 13.0778 42.9979 12.7414 42.9979 12.3339C43.5653 13.0778 44.0712 13.0487 44.9413 12.7732C45.3388 12.6541 45.3716 13.201 45.124 13.641C45.7207 13.2876 45.8775 12.7123 45.8775 12.4564C45.8775 11.8472 45.4009 11.5595 44.9413 11.682C44.6842 11.7111 44.1619 12.0618 44.1325 11.5595C44.0248 10.695 45.4009 10.7248 45.124 9.33039C44.974 8.63045 44.1912 8.24867 42.9685 8.09906C42.8479 7.97654 42.541 7.68817 42.3753 7.44516C41.7036 6.33905 41.0122 6.05068 40.5976 6.27745C40.1086 6.51912 39.8516 6.7337 39.454 6.94356C39.1308 7.11143 38.7947 7.20282 38.5798 7.44516C38.0452 8.09906 38.5505 9.1158 38.824 9.7406C39.0101 10.1027 39.454 10.9381 39.2549 11.5595C39.0394 12.3034 37.8004 12.7732 37.0537 12.9262C37.0046 12.9262 36.9753 12.9418 36.9269 12.9418V12.654C37.1417 12.2716 37.3272 11.8181 37.4806 11.4072C37.9859 10.0702 37.2331 9.52738 36.121 9.26811C35.9811 9.1774 35.8277 9.1449 35.6457 9.2065H35.6129L35.5829 9.43327L35.4301 9.38792L35.4629 9.1158H35.3967C35.5242 9.02509 35.5829 8.87278 35.5829 8.72114C35.5829 8.55597 35.5242 8.4321 35.4629 8.34274H35.6129L35.5501 8.28046C35.5242 8.21955 35.4629 8.16133 35.3681 8.06723C35.3388 8.03812 35.3095 7.97654 35.3095 7.94743C35.3388 7.97654 35.3681 8.00902 35.4301 8.03812C35.4915 8.09905 35.5829 8.16133 35.6129 8.21955L35.7036 8.28046V7.03763L35.6129 7.11142C35.5829 7.14188 35.4915 7.20282 35.4301 7.26442C35.3681 7.32602 35.3388 7.32602 35.3095 7.35513C35.3095 7.32602 35.3388 7.29352 35.3681 7.23192C35.4629 7.17371 35.5242 7.0796 35.5501 7.03763L35.6129 6.94356H34.3603L34.4223 7.03763C34.4809 7.0796 34.5594 7.17371 34.6214 7.23192C34.6507 7.29352 34.68 7.32602 34.7121 7.35513C34.68 7.32602 34.6214 7.32602 34.5887 7.26442C34.4809 7.20282 34.4223 7.14188 34.3603 7.11142L34.2989 7.03763V8.28046L34.3603 8.21955C34.4223 8.16133 34.4809 8.09905 34.5887 8.03812C34.6214 8.00902 34.68 7.97654 34.7121 7.94743C34.68 7.97654 34.6507 8.03812 34.6214 8.06723C34.5594 8.16133 34.4809 8.21955 34.4223 8.28046L34.3603 8.34274H34.5594C34.4516 8.4321 34.4223 8.55597 34.4223 8.72114C34.4223 8.87278 34.4809 9.02509 34.5887 9.1158H34.5594L34.5887 9.38792L34.4223 9.43327L34.3896 9.2065H34.3603C34.1775 9.1449 34.0248 9.1774 33.9007 9.26811C32.7687 9.52738 32.0193 10.0702 32.5246 11.4072C32.678 11.8181 32.8641 12.2716 33.0919 12.654V12.8511C31.9572 12.4855 29.9225 11.2549 29.3749 10.5109C29.3128 10.4365 29.2671 10.3749 29.2378 10.3296L29.2317 10.3329L29.2542 9.52737C29.649 8.87278 30.0009 8.06723 30.2784 7.32599C30.9957 5.39676 29.9388 4.59393 28.2593 4.25682C28.0902 4.13836 27.8754 4.07609 27.6013 4.16747L27.5419 4.47142L27.1908 4.44231L27.2194 4.04697C27.158 4.07608 27.0987 4.07608 27.0374 4.07608C27.2781 3.95627 27.4478 3.66452 27.4478 3.36396C27.4478 3.15072 27.3401 2.89146 27.158 2.77165H27.4478C27.2781 2.61866 27.0046 2.29915 26.9453 2.08863C27.158 2.14684 27.4806 2.43523 27.6306 2.58957V1.0103C27.4806 1.13011 27.158 1.43406 26.9453 1.46316C27.0046 1.28581 27.2781 0.978478 27.4478 0.826172H25.857C25.9804 0.978478 26.2866 1.28581 26.3159 1.46316C26.1304 1.43406 25.8277 1.13011 25.6579 1.0103V2.58957C25.8277 2.43523 26.1304 2.14684 26.3159 2.08863C26.2866 2.29915 25.9804 2.61866 25.857 2.77165H26.1304C25.9483 2.89146 25.857 3.15072 25.857 3.36396C25.857 3.66452 26.0097 3.95627 26.2545 4.07608C26.1925 4.07608 26.1304 4.07608 26.039 4.04697L26.0717 4.44231L25.7192 4.47142L25.6872 4.16747C25.413 4.07609 25.2016 4.13836 25.0155 4.25682C23.3523 4.59393 22.2927 5.39676 23.0135 7.32599C23.2582 8.06723 23.6101 8.87278 24.037 9.52737V10.362C24.0076 10.3912 23.9756 10.4528 23.9162 10.5109C23.3816 11.2549 21.3312 12.4855 20.1993 12.8511V12.654C20.4277 12.2716 20.6138 11.8181 20.7665 11.4072C21.2725 10.0702 20.5225 9.52738 19.3905 9.26811C19.2637 9.1774 19.1171 9.1449 18.9309 9.2065H18.9016L18.8688 9.43327L18.7161 9.38792L18.7454 9.1158H18.7161C18.8068 9.02509 18.8688 8.87278 18.8688 8.72114C18.8688 8.55597 18.8395 8.4321 18.7454 8.34274H18.9309L18.8688 8.28046C18.8068 8.21955 18.7454 8.16133 18.6861 8.06723C18.6567 8.03812 18.6118 7.97654 18.579 7.94743C18.6118 7.97654 18.6861 8.00902 18.7161 8.03812C18.8068 8.09905 18.8688 8.16133 18.9309 8.21955L18.993 8.28046V7.03763L18.9309 7.11142C18.8688 7.14188 18.8068 7.20282 18.7161 7.26442C18.6861 7.32602 18.6118 7.32602 18.579 7.35513C18.6118 7.32602 18.6567 7.29352 18.6861 7.23192C18.7454 7.17371 18.8068 7.0796 18.8688 7.03763L18.9309 6.94356H17.6783L17.7376 7.03763C17.7669 7.0796 17.8453 7.17371 17.9074 7.23192C17.966 7.29352 17.9954 7.32602 17.9954 7.35513C17.966 7.32602 17.9367 7.32602 17.8774 7.26442C17.7996 7.20282 17.7055 7.14188 17.6783 7.11142L17.5842 7.03763V8.28046L17.6783 8.21955C17.7055 8.16133 17.7996 8.09905 17.8774 8.03812C17.9367 8.00902 17.966 7.97654 17.9954 7.94743C17.9954 7.97654 17.966 8.03812 17.9074 8.06723C17.8453 8.16133 17.7669 8.21955 17.7376 8.28046L17.6783 8.34274H17.8453C17.7669 8.4321 17.7055 8.55597 17.7055 8.72114C17.7055 8.87278 17.7669 9.02509 17.9074 9.1158H17.8453L17.8774 9.38792L17.7055 9.43327L17.6783 9.2065H17.6462C17.4601 9.1449 17.3107 9.1774 17.1866 9.26811C16.0554 9.52738 15.3053 10.0702 15.8105 11.4072C15.964 11.8181 16.1495 12.2716 16.3778 12.654V12.9418C16.3288 12.9418 16.2865 12.9262 16.2537 12.9262C15.5044 12.7732 14.2517 12.3034 14.0369 11.5595C13.8378 10.9381 14.2844 10.1027 14.4645 9.7406C14.7543 9.1158 15.2466 8.09906 14.7284 7.44516C14.4965 7.20282 14.1603 7.11143 13.8378 6.94356C13.443 6.7337 13.1955 6.51912 12.6935 6.27745C12.2919 6.05068 11.6073 6.33905 10.9165 7.44516C10.7665 7.68817 10.444 7.97654 10.3192 8.09906C9.1129 8.24867 8.3335 8.63045 8.16779 9.33039C7.88753 10.7248 9.26702 10.695 9.17495 11.5595C9.1422 12.0618 8.61103 11.7111 8.36282 11.682C7.88753 11.5595 7.4143 11.8472 7.4143 12.4564C7.4143 12.7123 7.58409 13.2876 8.16779 13.641C7.923 13.201 7.95231 12.6541 8.36282 12.7732C9.23427 13.0487 9.72257 13.0778 10.2898 12.3339C10.2898 12.7414 9.92502 13.0778 9.75869 13.4271C9.41972 14.2916 9.98372 15.2176 11.102 15.1885C10.5967 14.7153 10.701 14.1717 10.701 14.1717C10.8579 13.3946 11.3468 13.1679 11.5132 12.5147C11.8528 11.0742 10.5054 10.848 10.7958 9.49419C10.8251 9.2972 10.8872 8.93505 10.9779 8.75025C11.8528 8.63043 12.3247 8.28046 12.9342 8.00902C13.5636 9.2065 11.7573 10.7539 12.9049 11.9704C13.5636 12.6541 14.787 13.0487 16.0554 13.1368C16.0812 13.1368 16.1235 13.1523 16.1563 13.1557C16.0683 13.2139 16.0226 13.3337 16.0226 13.4887C15.6898 13.3655 15.4293 13.5476 15.4751 13.9125C14.1603 13.9125 12.9997 14.6896 13.2868 16.2046C13.3782 16.7644 13.593 17.0101 13.9455 17.2829C14.4965 16.4178 16.088 16.3569 17.1246 16.9194C16.5606 16.8876 15.7484 17.0392 15.2466 17.2498C14.6629 17.509 13.9162 17.8461 13.1368 17.7554C12.5988 17.6938 12.3247 17.3607 12.2169 16.9783C11.9728 17.1915 12.1556 18.253 13.072 18.6808C13.5316 18.9075 14.3431 18.9982 14.9077 18.5867C15.1225 18.4675 15.964 17.5415 16.9909 17.5415C15.5044 17.9361 15.0904 18.9983 16.2537 19.6359C16.2081 19.2696 16.1495 18.7687 16.8961 18.3152C17.3107 18.056 17.966 17.9044 18.6118 18.1013C18.8395 18.192 19.143 18.3477 19.3292 18.4059C19.6483 18.4351 19.8017 18.2529 19.8924 18.1629C20.5518 18.6483 21.5132 20.1659 21.7287 21.1211C21.9572 22.2157 21.7908 22.9305 21.2398 23.5689C21.0571 23.7665 20.1699 24.4773 19.2998 23.7333C19.218 24.4292 19.58 24.9478 20.144 25.1352C19.6387 25.19 19.2998 25.2097 19.2896 25.2124L19.2016 25.2158L19.1662 25.2997C19.1559 25.3167 19.0809 25.4913 18.9896 25.8439C18.6731 25.7242 18.4059 25.5008 18.2429 25.19C17.4928 26.0417 17.7247 27.4077 18.7325 27.805C18.7222 27.9932 18.7161 28.1943 18.7161 28.4007C17.8514 29.0614 16.2804 28.9253 15.5044 27.7861C14.9077 26.9223 15.595 26.3002 15.9346 25.9503C16.8047 25.1162 16.8047 24.3094 16.1753 23.4159C15.3672 22.2156 12.8729 20.2573 11.9142 18.8296C11.7573 19.089 11.6667 19.332 11.6332 19.4219C10.7338 18.7424 9.72257 17.3317 9.39042 16.2661C9.20426 16.2953 9.06793 16.4794 8.91451 16.6154C7.52204 14.8676 4.98537 10.666 4.26801 9.02509C2.75147 9.7406 2.78079 11.8804 3.2438 13.107C3.65158 14.23 4.34302 15.4308 5.79342 17.1015C5.33723 16.7644 2.49371 13.8834 1.86499 13.5185C0.811462 15.0071 1.52882 17.6315 3.51451 18.7424C2.90489 18.4675 1.4054 17.9044 0.596662 18.1013C0.443235 19.772 1.80295 20.9105 2.64441 21.5326C1.83567 21.3512 0.902836 21.2152 0 21.471C0.061371 22.611 1.25197 23.885 2.93422 24.4773C1.865 24.371 0.779412 24.5105 0.120015 24.9017C0.244121 26.0863 1.59088 27.1058 3.20834 27.3495C2.12208 27.4686 1.15991 27.9418 0.658033 28.5923C1.25197 29.3653 2.12208 29.9576 3.45587 29.9285C3.14901 30.0355 2.79716 30.246 2.49371 30.5344C2.46166 30.5053 2.3996 30.4761 2.34096 30.4761C2.2755 30.5053 2.24959 30.596 2.2755 30.6569C2.2755 30.6569 2.2755 30.6569 2.2755 30.7022C2.14867 30.7936 2.07707 30.8965 2.06343 31.0068C1.93933 31.1822 1.81249 31.388 1.74362 31.5667C1.77635 31.583 1.80295 31.612 1.83567 31.6283C1.82272 31.7318 1.84522 31.8483 1.92364 31.962C1.86499 32.023 1.83567 32.1144 1.80294 32.2043L1.02353 31.8998C0.981251 32.6023 1.13741 33.1825 1.49609 33.5412C1.77635 33.858 2.09343 33.8127 2.00205 33.9204L2.84625 34.4342C2.99627 34.755 3.30244 34.755 3.51451 34.6643C3.51451 34.6643 3.51451 34.6934 3.51451 34.7259C3.51451 35.0589 3.74568 35.3311 4.04981 35.438C3.99116 35.7128 4.11117 35.8943 4.49577 36.0168L7.67546 43.666C7.55136 44.0289 7.67546 44.3491 7.95231 44.4689C7.88753 44.5589 7.82889 44.653 7.82889 44.8345C7.95231 44.7444 8.13507 44.7119 8.22644 44.9705C8.28508 45.1512 7.95231 45.7436 8.4576 46.1388C8.39214 46.4882 8.5783 46.851 8.94382 47.0066C8.94382 47.1881 9.1129 47.7804 9.1422 47.9909C8.91451 48.3104 8.39214 48.7965 8.4576 49.3272C8.51965 49.7096 8.66967 49.8295 8.97586 49.9195C8.85242 50.6025 9.23427 50.9071 9.81729 50.939C9.81729 51.4378 10.2898 51.6185 10.5967 51.6477C10.8872 51.8623 11.0106 51.9523 11.3468 52.1208C11.04 52.4837 11.2555 52.9561 11.8194 53.1085C11.8821 53.319 12.0348 53.5025 12.354 53.5776C12.5401 53.8815 12.8729 53.8815 13.072 53.7908C13.1955 53.7299 13.4109 53.38 13.2248 53.076C13.3489 52.9237 13.2868 52.6353 13.1955 52.4545C13.3782 52.1208 13.2248 51.7099 12.967 51.5894C12.9997 51.406 12.9049 51.1176 12.8436 50.939C13.2868 50.6641 13.8378 50.3148 14.0369 50.195C15.1225 49.4213 16.3452 48.7349 17.7376 48.6442C18.0901 48.6124 18.7454 48.5832 19.1171 48.6124C19.681 48.6733 20.4604 48.8425 20.9173 48.4919C21.0571 48.4018 21.1484 48.2495 21.1191 48.0972C21.0571 47.7472 20.6752 47.4433 20.5518 47.1258C20.519 47.0297 20.4604 46.8902 20.4017 46.7637C20.7993 46.8348 21.1648 46.7765 21.3926 46.6695C21.6374 46.5796 22.234 46.1388 22.2047 45.489C21.7287 45.7151 20.5811 46.0191 20.4604 44.8635C20.3363 43.8475 21.2398 42.983 22.648 43.3621C23.6101 43.6044 25.0155 45.6372 23.7308 46.5213C23.1041 46.945 22.1427 47.3526 22.2661 48.4627C22.6773 47.9618 23.2255 47.7181 23.9429 47.7804C22.8894 48.5541 22.0806 48.6442 20.9786 49.2365C20.0172 49.797 19.2998 50.7264 18.5463 50.7555C17.966 50.7846 17.6462 50.1009 18.2101 49.5702C17.6462 49.4504 16.8961 49.8904 16.6813 50.48C16.4071 51.2856 16.6193 51.8622 17.1246 52.1817C16.4399 52.5446 15.9346 53.2601 16.1753 54.2762C16.4071 55.1115 17.2487 55.1115 16.9288 56.1735C17.4021 56.0504 17.7055 55.7329 17.8453 55.2767C17.9074 54.9599 17.966 54.6268 18.1221 54.4738C18.0574 55.1115 18.4256 56.0504 19.2998 56.4775C19.8924 56.7659 20.8286 56.885 21.546 56.1445C21.8365 56.9791 22.8273 57.6912 23.8549 57.6621C24.3267 57.6621 24.7871 57.4611 25.1389 57.2539C25.3837 57.872 26.0097 58.4975 26.6357 58.7988C27.2781 58.4975 27.9075 57.872 28.1652 57.2539C28.5041 57.4611 28.9773 57.6621 29.4369 57.6621C30.4284 57.6912 31.4683 56.9791 31.7452 56.1445C32.4625 56.885 33.3954 56.7659 33.992 56.4775C34.8662 56.0504 35.231 55.1115 35.1724 54.4738C35.3388 54.6268 35.3967 54.9599 35.4629 55.2767C35.5829 55.7329 35.8864 56.0504 36.3623 56.1735C36.0431 55.1115 36.9003 55.1115 37.1124 54.2762C37.3565 53.2601 36.8519 52.5446 36.1796 52.1817C36.6692 51.8622 36.9003 51.2856 36.6071 50.48C36.395 49.8904 35.6457 49.4504 35.0776 49.5702C35.6457 50.1009 35.3388 50.7846 34.7414 50.7555C33.992 50.7264 33.2746 49.797 32.3098 49.2365C31.2106 48.6442 30.3991 48.5541 29.3455 47.7804C30.063 47.7181 30.6302 47.9618 31.025 48.4627C31.1485 47.3526 30.1871 46.945 29.5569 46.5213C28.2893 45.6372 29.6818 43.6044 30.6596 43.3621C32.0486 42.983 32.9678 43.8475 32.8315 44.8635C32.678 46.0191 31.5624 45.7151 31.0578 45.489C31.0578 46.1388 31.6511 46.5796 31.8986 46.6695C32.1857 46.8057 32.7135 46.8767 33.1895 46.6757C33.1737 46.7894 33.154 46.9126 33.154 46.945C33.0599 47.9327 32.5246 48.0227 32.7074 48.4309C32.9678 48.7349 34.68 48.6733 35.1397 48.7674C35.9518 48.8736 36.6398 49.1755 37.4193 49.3272C38.2894 49.5086 39.2222 49.5086 40.0044 49.8295C40.5069 50.0427 41.0743 50.4509 41.5632 50.6932C42.3098 50.8164 42.1891 51.1176 42.6658 51.1176C43.0926 51.1176 43.2583 50.7555 43.81 50.6025C44.1912 50.5118 44.6181 50.6641 44.9999 50.5409C45.2775 50.48 45.4009 50.195 45.662 50.0427C45.9683 49.8586 46.3957 49.8586 46.6863 49.5993C46.839 49.4659 46.8684 49.2074 46.8452 49.0259L46.852 49.0685C47.4356 48.6604 47.8789 48.0681 48.1237 47.3817C48.2764 47.3526 48.3978 47.2172 48.3978 47.0649C48.3978 47.0358 48.3978 47.0066 48.3978 47.0066C48.5506 46.8834 48.642 46.6986 48.642 46.5213C48.642 46.2911 48.5506 46.1098 48.3978 45.9581C48.3978 45.9581 48.3978 45.9257 48.3978 45.8959C48.3978 45.7767 48.3358 45.686 48.2764 45.6081C48.0323 44.2875 47.0218 43.226 45.7207 42.8923C45.7207 42.8605 45.7207 42.8605 45.7207 42.8314H45.6913C45.6913 42.7691 45.662 42.7373 45.6164 42.7373C45.4302 42.5559 45.2147 42.2709 45.1888 42.0861C45.4009 42.1477 45.7534 42.4807 45.9355 42.6168V40.8724C45.7534 41.0084 45.4009 41.3429 45.1888 41.4031C45.2147 41.1899 45.5509 40.8108 45.7207 40.6592H43.9334C44.1005 40.8108 44.436 41.1899 44.4653 41.4031C44.2533 41.3429 43.9014 41.0084 43.7187 40.8724V42.6168C43.9014 42.4807 44.2533 42.1477 44.4653 42.0861C44.436 42.3 44.1005 42.6791 43.9334 42.8314L43.9955 42.8605C42.6658 43.1644 41.5925 44.2583 41.3477 45.6081C41.257 45.686 41.1949 45.7767 41.1949 45.8959C41.1949 45.9257 41.1949 45.9581 41.1949 45.9581C41.0415 46.1098 40.9501 46.2911 40.9501 46.5213C40.9501 46.6986 41.0415 46.8834 41.1949 47.0066C41.1949 47.0066 41.1949 47.0358 41.1949 47.0649C41.1949 47.2626 41.3183 47.3526 41.4691 47.3817C41.5311 47.5503 41.6054 47.7181 41.6838 47.8704C41.6838 47.8549 41.6838 47.8549 41.7036 47.8386C41.5925 48.3395 40.9828 48.6442 40.8458 48.6442C39.7568 48.7965 38.5505 48.3395 37.4486 47.9327C36.9624 47.7472 36.3037 47.5373 35.9811 47.0649C35.782 46.7224 35.6975 46.5044 35.7984 46.2004C35.919 46.3527 36.121 46.5213 36.395 46.6695C36.4243 46.5213 36.4243 46.3527 36.483 46.2295C36.7633 46.6405 37.2038 46.851 37.7384 46.8218C37.4193 46.5504 37.2658 45.8349 37.4193 45.2135C37.8625 45.9581 39.5447 46.1098 39.8516 44.7735C39.2222 45.0645 38.824 44.7444 38.7033 44.4106C38.5178 43.8766 39.1308 42.585 38.5798 41.5845C38.1359 40.8433 37.6347 40.387 36.4571 40.2056C36.5484 40.0669 36.5777 39.9437 36.6071 39.7338C35.5242 40.1291 34.5887 39.8238 34.1447 38.9601C34.3602 39.0501 34.68 39.0832 34.9862 39.0832C34.0248 38.3055 34.0834 36.1041 34.7741 34.9689C34.8662 34.9073 34.8955 34.8457 34.9862 34.8166C35.1983 35.2411 35.8277 35.2411 36.1468 35.5897C36.2716 35.4671 36.333 35.438 36.4571 35.3311C36.4571 35.3311 36.483 37.1378 36.6071 37.8811C36.7278 38.717 37.5427 38.6264 37.9539 38.9919C38.4428 38.4578 39.3293 38.4869 39.1928 37.5615C39.0687 36.6382 38.886 35.8042 38.8573 35.1788C39.1308 35.742 39.6654 37.852 39.881 38.4578C40.2294 39.3547 41.1036 39.0832 41.5925 39.4318C41.915 38.8077 42.7244 38.6264 42.4012 37.684C42.3098 37.4417 40.9828 34.6643 40.7837 34.1302C41.257 34.8166 42.541 37.2597 42.9392 37.9434C43.3825 38.6554 44.1912 38.3055 44.7715 38.4869C44.8827 37.9724 45.662 37.3801 45.0947 36.4866C44.3774 35.302 42.6951 33.2367 42.6031 32.9489C42.9392 33.2657 45.5509 36.4866 45.7534 36.6673C46.3631 37.1987 47.2496 36.7878 47.7711 36.7878C47.7711 36.1989 48.2444 35.5294 47.5597 34.8457C46.9304 34.2534 45.493 33.2367 45.1888 32.8873C46.1476 33.5412 47.2822 34.5865 47.9539 34.755C49.1473 35.0589 49.5748 34.5865 50.0214 34.405C49.6532 33.3281 50.1421 32.8292 47.6184 31.7806C49.8025 32.5543 50.7681 32.1725 51.5475 31.5667C51.2407 30.7936 50.4612 30.1431 49.8319 29.9285C51.1657 29.9576 52.0528 29.3653 52.6331 28.5923C52.1442 27.9418 51.1656 27.4686 50.0507 27.3495C51.7003 27.1058 53.015 26.0863 53.1677 24.9017Z" fill="black"/>
</g>
<defs>
<clipPath id="clip0_689_1500">
<rect width="54" height="58" fill="white" transform="translate(0 0.826172)"/>
</clipPath>
</defs>
</svg>
