<svg width="82" height="25" viewBox="0 0 82 25" fill="none" xmlns="http://www.w3.org/2000/svg">
<g clip-path="url(#clip0_689_1539)">
<path fill-rule="evenodd" clip-rule="evenodd" d="M22.0964 4.7233e-07V0.0108414C22.0863 0.0108414 18.8934 4.13548e-07 18.042 3.26311C17.2616 6.25521 15.0621 14.516 15.0012 14.7436H14.3931C14.3931 14.7436 12.1429 6.29857 11.3523 3.25227C10.5009 -0.0108405 7.2979 4.7233e-07 7.2979 4.7233e-07H0V24.8257H7.2979V10.082H7.60198H7.90606L12.1632 24.8257H17.2311L21.4883 10.0929H22.0964V24.8257H29.3943V4.7233e-07H22.0964Z" fill="black"/>
<path fill-rule="evenodd" clip-rule="evenodd" d="M48.754 0C48.754 0 46.6153 0.205977 45.6119 2.60182L40.4425 14.7436H39.8344V0H32.5365V24.8257H39.4289C39.4289 24.8257 41.669 24.6089 42.6724 22.2239L47.7404 10.082H48.3486V24.8257H55.6465V0H48.754Z" fill="black"/>
<path fill-rule="evenodd" clip-rule="evenodd" d="M58.8898 11.2744V24.8256H66.1877V16.9117H74.0937C77.5399 16.9117 80.4591 14.5592 81.5436 11.2744H58.8898Z" fill="black"/>
<path fill-rule="evenodd" clip-rule="evenodd" d="M74.0939 0H57.8662C58.6771 4.72664 61.9916 8.52096 66.2791 9.75682C67.2521 10.0387 68.2759 10.1905 69.33 10.1905H81.8378C81.9493 9.62673 82 9.05216 82 8.45591C82 3.78348 78.4625 0 74.0939 0Z" fill="black"/>
</g>
<defs>
<clipPath id="clip0_689_1539">
<rect width="82" height="24.8257" fill="white"/>
</clipPath>
</defs>
</svg>
