<svg width="22" height="22" viewBox="0 0 22 22" fill="none" xmlns="http://www.w3.org/2000/svg">
<rect width="22" height="22" rx="11" fill="#D92C04"/>
<path d="M10.33 11.65L10.06 9V7H11.61V9L11.35 11.65H10.33ZM11.44 13.88C11.2733 14.0467 11.0733 14.13 10.84 14.13C10.6067 14.13 10.4067 14.0467 10.24 13.88C10.0733 13.7133 9.99 13.5133 9.99 13.28C9.99 13.0467 10.0733 12.8467 10.24 12.68C10.4067 12.5133 10.6067 12.43 10.84 12.43C11.0733 12.43 11.2733 12.5133 11.44 12.68C11.6067 12.8467 11.69 13.0467 11.69 13.28C11.69 13.5133 11.6067 13.7133 11.44 13.88Z" fill="white"/>
</svg>
